<?xml version="1.0" encoding="utf-8"?>
<!-- Generator: Adobe Illustrator 22.0.1, SVG Export Plug-In . SVG Version: 6.00 Build 0)  -->
<svg version="1.1" id="Layer_1" xmlns="http://www.w3.org/2000/svg" xmlns:xlink="http://www.w3.org/1999/xlink" x="0px" y="0px"
	 viewBox="0 0 281 54.5" style="enable-background:new 0 0 281 54.5;" xml:space="preserve">
<style type="text/css">
	.st0{fill:#272727;}
	.st1{fill:#C4153C;}
</style>
<g>
	<g>
		<path class="st0" d="M39.6,8.5c4.7,0,7.6,2.5,7.6,6.5c0,2.7-1.4,4.7-3.9,5.6c2.1,1.4,3.4,3.5,5.1,6.4c1,1.6,1.6,2.4,3.1,4.6h-4
			l-3-4.7c-3-4.7-4.4-5.3-6.1-5.3h-1.4v10h-3.3V8.5H39.6z M37.1,18.6h2.1c3.5,0,4.6-1.8,4.5-3.8c0-2.2-1.3-3.5-4.5-3.5h-2.1V18.6z"
			/>
		<path class="st0" d="M65.2,11.5h-9.8v7h9.4v3h-9.4v7.2h10.1v3H52.1V8.5h13.1V11.5z"/>
		<path class="st0" d="M68.3,8.5h9c8.5,0,12.3,6.1,12.3,11.5c0,5.9-4.6,11.5-12.2,11.5h-9V8.5z M71.6,28.6h5.3
			c7.5,0,9.2-5.7,9.2-8.6c0-4.6-2.9-8.6-9.4-8.6h-5.1V28.6z"/>
		<path class="st0" d="M119.5,31.6h-3.3v-10h-12.9v10H100V8.5h3.3v10h12.9v-10h3.3V31.6z"/>
		<path class="st0" d="M134,8.2c7.6,0,12.4,5.4,12.4,11.8c0,6.2-4.7,11.8-12.5,11.8c-7.5,0-12.3-5.6-12.3-11.8
			C121.6,13.6,126.5,8.2,134,8.2z M134,28.8c5.2,0,9-3.8,9-8.8c0-5.1-3.8-8.8-9-8.8c-5.1,0-9,3.7-9,8.8
			C125,25.1,128.8,28.8,134,28.8z"/>
		<path class="st0" d="M160.1,8.2c7.6,0,12.4,5.4,12.4,11.8c0,6.2-4.7,11.8-12.5,11.8c-7.5,0-12.3-5.6-12.3-11.8
			C147.7,13.6,152.6,8.2,160.1,8.2z M160.1,28.8c5.2,0,9-3.8,9-8.8c0-5.1-3.8-8.8-9-8.8c-5.1,0-9,3.7-9,8.8
			C151.1,25.1,155,28.8,160.1,28.8z"/>
		<path class="st0" d="M194,31.6h-4.6l-11.7-11.4v11.4h-3.3V8.5h3.3V19l9.7-10.5h4.1l-10,10.9L194,31.6z"/>
		<path class="st0" d="M200.1,8.5h7.6l2.7,10.3h0.1l2.9-10.3h5.8l3,10.3h0.1l2.5-10.3h7.6l-7.8,23.1h-4.8l-3.4-11.4h-0.1l-3.2,11.4
			h-4.8L200.1,8.5z"/>
		<path class="st0" d="M236.1,8.5h8.1v23.1h-8.1V8.5z"/>
		<path class="st0" d="M249.9,8.5h16.8v4.9H258v4.2h8.2v4.9H258v9.1h-8.1V8.5z"/>
		<path class="st0" d="M271.2,8.5h8.1v23.1h-8.1V8.5z"/>
	</g>
</g>
<g>
	<path class="st1" d="M21.2,15.7L21.2,15.7c-0.8-1-1.9-2.2-3-3.1l-0.1-0.1c-1.1-0.9-1.2-1.3-1.2-1.5c0.2-0.1,0.3-0.2,0.5-0.3
		c0.4-0.2,0.8-0.5,1.2-0.9c0.6-0.7,1-1.5,1.1-2.4C20,6,19.6,4.4,18.6,3.2c-1-1.1-2.4-1.8-3.9-1.8c0,0,0,0,0,0
		c-1.5,0-2.9,0.7-3.9,1.8C9.8,4.4,9.4,6,9.7,7.6c0.3,1.4,1.2,3.2,1.9,4c0.5,0.6,2.4,2.8,3.2,3.5c0.4,0.4,4.4,3.9,3.7,6.9
		c-0.6,2.6-3.1,4.3-5.7,3.9c-2.6-0.4-4.5-2.8-4.2-5.4c0-0.4,0.1-0.9,0.3-1.3c0-0.1,0.1-0.1,0.1-0.2c0.1-0.2,0.3-0.5,0.2-0.8
		c0-0.4-0.3-0.5-0.4-0.5c-0.5-0.1-0.9,0.5-0.9,0.5c-0.2,0.3-0.5,0.5-0.8,0.7c-0.2,0.1-0.4,0.3-0.6,0.4c-0.6,0.5-1,1.2-1.3,1.9
		c-1.1,2.5-0.6,5.6,1.2,7.8c2.1,2.6,5,4,8.1,4c6.8,0,9.8-4.5,9.9-8.8C24.3,20,23,18,21.2,15.7z M14.8,7.6c-0.6,0-1.1-0.5-1.1-1.1
		s0.5-1.1,1.1-1.1c0.6,0,1.1,0.5,1.1,1.1S15.4,7.6,14.8,7.6z"/>
	<g>
		<path class="st1" d="M14.4,40.3c-3.1,0-6.2-1-8.9-2.9c-0.8-0.5-0.9-1.6-0.4-2.3c0.5-0.8,1.6-0.9,2.3-0.4c4.4,3.1,9.6,3.1,14,0
			c0.8-0.5,1.8-0.3,2.3,0.4s0.3,1.8-0.4,2.3C20.6,39.3,17.5,40.3,14.4,40.3z"/>
		<path class="st1" d="M14.4,51.8c-4.4,0-8.7-1.1-12.8-3.3c-0.8-0.4-1.1-1.4-0.7-2.2c0.4-0.8,1.4-1.1,2.2-0.7
			c7.2,3.8,15.3,3.8,22.5,0c0.8-0.4,1.8-0.1,2.2,0.7c0.4,0.8,0.1,1.8-0.7,2.2C23.1,50.7,18.8,51.8,14.4,51.8z"/>
		<path class="st1" d="M14.4,45.9c-3.8,0-7.4-1-10.8-3c-0.8-0.5-1.1-1.5-0.6-2.3c0.5-0.8,1.5-1.1,2.3-0.6c5.9,3.4,12.5,3.4,18.3,0
			c0.8-0.5,1.8-0.2,2.3,0.6c0.5,0.8,0.2,1.8-0.6,2.3C21.8,44.9,18.1,45.9,14.4,45.9z"/>
	</g>
</g>
<g>
	<path class="st0" d="M43.2,48.5h-3.5v-1.1h1.1l-0.6-1.6h-3.8l-0.6,1.6h1.2v1.1h-3.4v-1.1h0.9l3-7.1H36v-1.1h2.8l3.4,8.3h0.9V48.5z
		 M39.9,44.8L38.5,41h-0.1l-1.5,3.8H39.9z"/>
	<path class="st0" d="M54.3,42c0,1-0.3,1.8-0.9,2.3c-0.6,0.5-1.4,0.8-2.3,0.8h-1.7v2.3h1.6v1.1h-4v-1.1H48v-7.1h-1.1v-1.1h4.1
		c1.2,0,2,0.3,2.5,0.8C54,40.5,54.3,41.2,54.3,42z M52.8,42c0-0.6-0.2-1-0.5-1.3s-0.9-0.5-1.6-0.5h-1.5V44h1.5
		C52.2,44,52.8,43.3,52.8,42z"/>
	<path class="st0" d="M59.1,41.9c0.5,0,0.8,0.1,1.2,0.3l0.3,1.8l-1,0.1l-0.2-1.1C59.1,43,58.9,43,58.7,43c-0.3,0-0.6,0.1-0.8,0.4
		c-0.2,0.3-0.3,0.6-0.3,1.1v3H59v1h-3.7v-1h1V43h-1.1v-1h2.3v1.2c0.1-0.4,0.3-0.7,0.6-0.9C58.4,42.1,58.7,41.9,59.1,41.9z"/>
	<path class="st0" d="M68.2,45.3c0,1-0.3,1.8-0.9,2.4c-0.6,0.6-1.4,0.9-2.4,0.9c-1,0-1.8-0.3-2.3-0.9c-0.6-0.6-0.9-1.4-0.9-2.4
		c0-0.9,0.3-1.8,0.8-2.4c0.5-0.7,1.4-1,2.5-1c1.1,0,1.9,0.3,2.4,1C68,43.6,68.2,44.4,68.2,45.3z M66.9,45.2c0-0.7-0.2-1.3-0.5-1.7
		c-0.4-0.4-0.8-0.6-1.4-0.6c-0.6,0-1.1,0.2-1.4,0.7c-0.3,0.4-0.5,1-0.5,1.7c0,0.7,0.2,1.2,0.5,1.7c0.3,0.5,0.8,0.7,1.4,0.7
		c0.6,0,1.1-0.2,1.5-0.7C66.7,46.5,66.9,45.9,66.9,45.2z"/>
	<path class="st0" d="M71.6,48.6c0,1.2-0.3,2.1-0.8,2.6c-0.5,0.5-1.2,0.7-2.2,0.6l0-0.9c0.3,0,0.5,0,0.8-0.1
		c0.3-0.1,0.5-0.3,0.6-0.6c0.2-0.3,0.3-0.8,0.3-1.5V43H69v-1h2.6V48.6z M70.3,40.5V39h1.3v1.5H70.3z"/>
	<path class="st0" d="M79.2,46.6c-0.1,0.6-0.3,1-0.8,1.4c-0.5,0.4-1.1,0.6-2,0.6c-0.9,0-1.7-0.3-2.3-0.8s-0.9-1.4-0.9-2.4
		c0-1,0.3-1.8,0.8-2.5c0.5-0.7,1.3-1,2.2-1c0.9,0,1.6,0.3,2.1,0.8c0.5,0.6,0.7,1.2,0.8,2c0,0.3,0,0.5-0.1,0.8h-4.5
		c0.1,1.4,0.7,2.1,1.9,2.1c0.5,0,0.9-0.1,1.1-0.4c0.3-0.2,0.4-0.5,0.5-0.9L79.2,46.6z M77.8,44.7c0-0.4-0.1-0.8-0.3-1.2
		c-0.2-0.4-0.7-0.6-1.2-0.6c-0.5,0-0.9,0.2-1.2,0.5c-0.3,0.4-0.4,0.8-0.5,1.3H77.8z"/>
	<path class="st0" d="M86.2,46.3c-0.1,0.6-0.3,1.1-0.8,1.6c-0.4,0.5-1.1,0.8-2,0.8c-0.9,0-1.6-0.3-2.2-0.8c-0.6-0.6-0.8-1.4-0.8-2.4
		c0-1,0.3-1.8,0.8-2.5c0.6-0.7,1.3-1,2.3-1c0.4,0,0.8,0,1.2,0.1c0.4,0.1,0.7,0.3,1.1,0.5l0.3,1.7l-1,0.1l-0.2-1.1
		c-0.4-0.2-0.8-0.3-1.3-0.3c-0.6,0-1.1,0.2-1.3,0.7c-0.3,0.4-0.4,1-0.4,1.7c0,0.7,0.2,1.3,0.5,1.7c0.3,0.4,0.8,0.6,1.4,0.6
		c0.9,0,1.4-0.5,1.6-1.6L86.2,46.3z"/>
	<path class="st0" d="M92.3,46.7c-0.2,1.3-0.9,2-2.2,2c-0.7,0-1.2-0.2-1.6-0.5c-0.4-0.4-0.6-0.9-0.6-1.5V43h-1v-1h1v-2h1.3v2h2.5v1
		h-2.5v3.4c0,0.8,0.3,1.2,1,1.2c0.2,0,0.4-0.1,0.6-0.2c0.2-0.1,0.4-0.5,0.4-1L92.3,46.7z"/>
	<path class="st0" d="M102.8,45.3c0,1-0.3,1.8-0.9,2.4c-0.6,0.6-1.4,0.9-2.4,0.9c-1,0-1.8-0.3-2.3-0.9c-0.6-0.6-0.9-1.4-0.9-2.4
		c0-0.9,0.3-1.8,0.8-2.4c0.5-0.7,1.4-1,2.5-1s1.9,0.3,2.4,1C102.6,43.6,102.8,44.4,102.8,45.3z M101.5,45.2c0-0.7-0.2-1.3-0.5-1.7
		c-0.4-0.4-0.8-0.6-1.4-0.6c-0.6,0-1.1,0.2-1.4,0.7c-0.3,0.4-0.5,1-0.5,1.7c0,0.7,0.2,1.2,0.5,1.7c0.3,0.5,0.8,0.7,1.4,0.7
		c0.6,0,1.1-0.2,1.5-0.7C101.3,46.5,101.5,45.9,101.5,45.2z"/>
	<path class="st0" d="M107.3,38.4c0.3,0,0.6,0,0.9,0.1c0.3,0.1,0.5,0.2,0.8,0.4l0.3,1.6l-1,0.1l-0.3-1.1c-0.2-0.1-0.4-0.1-0.7-0.1
		c-0.7,0-1,0.4-1,1.3V42h1.7v1h-1.7v4.5h1.4v1h-3.7v-1h1.1V43h-0.9v-1h0.9v-1.1c0-0.7,0.2-1.3,0.7-1.8
		C106.1,38.6,106.6,38.4,107.3,38.4z"/>
	<path class="st0" d="M120.8,48.5h-2l-2-3.8H115v2.7h1.2v1.1h-3.6v-1.1h1.1v-7.1h-1.1v-1.1h4.1c1.2,0,2,0.2,2.6,0.7
		c0.5,0.5,0.8,1.2,0.8,2c0,0.6-0.2,1.2-0.5,1.6c-0.3,0.5-0.8,0.8-1.4,1l1.6,3h1.2V48.5z M118.6,41.8c0-0.6-0.2-1-0.5-1.2
		c-0.3-0.3-0.9-0.4-1.7-0.4H115v3.4h1.5c0.8,0,1.3-0.2,1.7-0.5C118.4,42.8,118.6,42.4,118.6,41.8z"/>
	<path class="st0" d="M127.4,46.6c-0.1,0.6-0.3,1-0.8,1.4c-0.5,0.4-1.1,0.6-2,0.6c-0.9,0-1.7-0.3-2.3-0.8s-0.9-1.4-0.9-2.4
		c0-1,0.3-1.8,0.8-2.5c0.5-0.7,1.3-1,2.2-1c0.9,0,1.6,0.3,2.1,0.8c0.5,0.6,0.7,1.2,0.8,2c0,0.3,0,0.5-0.1,0.8h-4.5
		c0.1,1.4,0.7,2.1,1.9,2.1c0.5,0,0.9-0.1,1.1-0.4c0.3-0.2,0.4-0.5,0.5-0.9L127.4,46.6z M126,44.7c0-0.4-0.1-0.8-0.3-1.2
		c-0.2-0.4-0.7-0.6-1.2-0.6c-0.5,0-0.9,0.2-1.2,0.5c-0.3,0.4-0.4,0.8-0.5,1.3H126z"/>
	<path class="st0" d="M135.9,48.5h-2.3v-1.3c-0.2,0.4-0.5,0.7-0.8,1s-0.8,0.4-1.4,0.4c-0.8,0-1.5-0.3-2-0.9s-0.8-1.4-0.8-2.4
		c0-0.9,0.2-1.7,0.7-2.4c0.5-0.7,1.2-1.1,2.2-1.1c1,0,1.7,0.4,2.1,1.2v-3.5h-1.5v-1h2.7v9h1V48.5z M133.6,45.5v-0.8
		c0-0.5-0.2-1-0.5-1.3c-0.3-0.3-0.8-0.5-1.3-0.5c-0.6,0-1.1,0.2-1.4,0.7c-0.3,0.5-0.5,1-0.5,1.7c0,0.7,0.2,1.3,0.5,1.7
		c0.3,0.4,0.8,0.6,1.3,0.6c0.5,0,1-0.2,1.4-0.7C133.4,46.5,133.6,46,133.6,45.5z"/>
	<path class="st0" d="M150,48.5h-3.6v-1.1h1.1v-3.1h-4.8v3.1h1.1v1.1h-3.6v-1.1h1.1v-7.1h-1.1v-1.1h3.6v1.1h-1.1v2.9h4.8v-2.9h-1.1
		v-1.1h3.6v1.1h-1.1v7.1h1.1V48.5z"/>
	<path class="st0" d="M157.5,45.3c0,1-0.3,1.8-0.9,2.4c-0.6,0.6-1.4,0.9-2.4,0.9c-1,0-1.8-0.3-2.3-0.9c-0.6-0.6-0.9-1.4-0.9-2.4
		c0-0.9,0.3-1.8,0.8-2.4c0.5-0.7,1.4-1,2.5-1s1.9,0.3,2.4,1C157.3,43.6,157.5,44.4,157.5,45.3z M156.2,45.2c0-0.7-0.2-1.3-0.5-1.7
		c-0.4-0.4-0.8-0.6-1.4-0.6c-0.6,0-1.1,0.2-1.4,0.7c-0.3,0.4-0.5,1-0.5,1.7c0,0.7,0.2,1.2,0.5,1.7c0.3,0.5,0.8,0.7,1.4,0.7
		c0.6,0,1.1-0.2,1.5-0.7C156,46.5,156.2,45.9,156.2,45.2z"/>
	<path class="st0" d="M165.2,45.3c0,1-0.3,1.8-0.9,2.4c-0.6,0.6-1.4,0.9-2.4,0.9c-1,0-1.8-0.3-2.3-0.9c-0.6-0.6-0.9-1.4-0.9-2.4
		c0-0.9,0.3-1.8,0.8-2.4c0.5-0.7,1.4-1,2.5-1s1.9,0.3,2.4,1C164.9,43.6,165.2,44.4,165.2,45.3z M163.9,45.2c0-0.7-0.2-1.3-0.5-1.7
		c-0.4-0.4-0.8-0.6-1.4-0.6c-0.6,0-1.1,0.2-1.4,0.7c-0.3,0.4-0.5,1-0.5,1.7c0,0.7,0.2,1.2,0.5,1.7c0.3,0.5,0.8,0.7,1.4,0.7
		c0.6,0,1.1-0.2,1.5-0.7C163.7,46.5,163.9,45.9,163.9,45.2z"/>
	<path class="st0" d="M173.4,48.5h-3.1v-1h0.9l-1.6-1.9h-1.1v1.9h0.8v1h-3.1v-1h1v-8h-1.1v-1h2.3v6.1h1.1l1.3-1.6H170v-1h3.1v1h-0.9
		l-1.6,2l2.1,2.5h0.8V48.5z"/>
	<path class="st0" d="M181.3,48.5h-3.6v-1.1h1.1v-7.1h-1.1v-1.1h3.6v1.1h-1.1v7.1h1.1V48.5z"/>
	<path class="st0" d="M190.3,48.5H187v-1h1v-2.8c0-0.7-0.1-1.1-0.4-1.4c-0.3-0.3-0.6-0.4-1-0.4c-0.5,0-1,0.2-1.3,0.5
		c-0.3,0.4-0.5,0.8-0.5,1.2v2.8h1v1h-3.4v-1h1V43h-1.1v-1h2.4v1.1c0.5-0.8,1.2-1.2,2.2-1.2c0.6,0,1.2,0.2,1.6,0.6
		c0.4,0.4,0.7,1,0.7,1.8v3.2h1V48.5z"/>
	<path class="st0" d="M194.5,48.5h-3.4v-1h1.1V43h-1.1v-1h2.4v5.5h1V48.5z M192.1,40.5V39h1.3v1.5H192.1z"/>
	<path class="st0" d="M200.5,46.7c-0.2,1.3-0.9,2-2.2,2c-0.7,0-1.2-0.2-1.6-0.5c-0.4-0.4-0.6-0.9-0.6-1.5V43h-1v-1h1v-2h1.3v2h2.5v1
		h-2.5v3.4c0,0.8,0.3,1.2,1,1.2c0.2,0,0.4-0.1,0.6-0.2c0.2-0.1,0.4-0.5,0.4-1L200.5,46.7z"/>
	<path class="st0" d="M204.6,48.5h-3.4v-1h1.1V43h-1.1v-1h2.4v5.5h1V48.5z M202.2,40.5V39h1.3v1.5H202.2z"/>
	<path class="st0" d="M206.2,42.5c0.4-0.2,0.8-0.4,1.2-0.5s0.8-0.1,1.3-0.1c0.7,0,1.3,0.2,1.7,0.5c0.4,0.4,0.6,0.9,0.6,1.6v3
		c0,0.4,0.2,0.6,0.5,0.6c0.1,0,0.3,0,0.4-0.1l0,0.8c-0.3,0.2-0.6,0.2-0.9,0.2c-0.8,0-1.2-0.4-1.2-1.3v0c-0.2,0.3-0.5,0.6-0.8,0.9
		s-0.8,0.4-1.3,0.4c-0.4,0-0.9-0.1-1.3-0.4c-0.4-0.3-0.7-0.7-0.7-1.4c0-0.8,0.3-1.3,1-1.6c0.6-0.3,1.3-0.4,2.1-0.4
		c0.4,0,0.8,0,1.1,0.1v-0.5c0-0.4-0.1-0.8-0.2-1.1c-0.2-0.3-0.5-0.4-1.1-0.4c-0.5,0-0.9,0.1-1.2,0.2l-0.2,1.1l-1-0.1L206.2,42.5z
		 M209.8,46v-0.4c-0.2,0-0.4,0-0.5-0.1c-0.2,0-0.4,0-0.6,0c-0.4,0-0.8,0.1-1.2,0.2c-0.3,0.1-0.5,0.4-0.5,0.9c0,0.3,0.1,0.6,0.3,0.8
		c0.2,0.2,0.5,0.2,0.7,0.2c0.4,0,0.8-0.1,1.2-0.4C209.5,46.9,209.7,46.5,209.8,46z"/>
	<path class="st0" d="M217.9,46.7c-0.2,1.3-0.9,2-2.2,2c-0.7,0-1.2-0.2-1.6-0.5c-0.4-0.4-0.6-0.9-0.6-1.5V43h-1v-1h1v-2h1.3v2h2.5v1
		h-2.5v3.4c0,0.8,0.3,1.2,1,1.2c0.2,0,0.4-0.1,0.6-0.2c0.2-0.1,0.4-0.5,0.4-1L217.9,46.7z"/>
	<path class="st0" d="M221.9,48.5h-3.4v-1h1.1V43h-1.1v-1h2.4v5.5h1V48.5z M219.5,40.5V39h1.3v1.5H219.5z"/>
	<path class="st0" d="M229.6,43h-0.8l-2.3,5.5h-0.9l-2.5-5.5h-0.8v-1h3.1v1h-1l1.6,3.8h0.1l1.4-3.8h-0.9v-1h2.9V43z"/>
	<path class="st0" d="M236.1,46.6c-0.1,0.6-0.3,1-0.8,1.4c-0.5,0.4-1.1,0.6-2,0.6c-0.9,0-1.7-0.3-2.3-0.8s-0.9-1.4-0.9-2.4
		c0-1,0.3-1.8,0.8-2.5c0.5-0.7,1.3-1,2.2-1c0.9,0,1.6,0.3,2.1,0.8c0.5,0.6,0.7,1.2,0.8,2c0,0.3,0,0.5-0.1,0.8h-4.5
		c0.1,1.4,0.7,2.1,1.9,2.1c0.5,0,0.9-0.1,1.1-0.4c0.3-0.2,0.4-0.5,0.5-0.9L236.1,46.6z M234.7,44.7c0-0.4-0.1-0.8-0.3-1.2
		c-0.2-0.4-0.7-0.6-1.2-0.6c-0.5,0-0.9,0.2-1.2,0.5c-0.3,0.4-0.4,0.8-0.5,1.3H234.7z"/>
</g>
</svg>
